<?xml version="1.0" standalone="no"?>
<!DOCTYPE svg PUBLIC "-//W3C//DTD SVG 20010904//EN"
 "http://www.w3.org/TR/2001/REC-SVG-20010904/DTD/svg10.dtd">
<svg version="1.0" xmlns="http://www.w3.org/2000/svg"
 width="1024.000000pt" height="1024.000000pt" viewBox="0 0 1024.000000 1024.000000"
 preserveAspectRatio="xMidYMid meet">
<metadata>
Created by potrace 1.14, written by Peter Selinger 2001-2017
</metadata>
<g transform="translate(0.000000,1024.000000) scale(0.100000,-0.100000)"
fill="#000000" stroke="none">
<path d="M0 5120 l0 -5120 5120 0 5120 0 0 5120 0 5120 -5120 0 -5120 0 0
-5120z m4477 3099 c8 -8 17 -8 33 1 18 10 31 9 67 -5 24 -9 53 -15 63 -12 11
3 21 -1 24 -9 3 -8 15 -14 27 -14 15 0 19 5 15 15 -4 12 3 15 29 15 39 0 43
-6 18 -26 -17 -13 -17 -13 2 -15 35 -4 78 -8 155 -14 41 -3 99 -15 128 -27 43
-18 57 -20 72 -10 26 16 45 15 59 -2 10 -11 9 -16 -5 -24 -13 -7 -10 -10 17
-16 18 -3 47 -3 65 0 24 4 41 1 62 -14 15 -12 41 -24 58 -28 16 -4 41 -14 56
-22 22 -13 35 -14 67 -6 22 6 46 7 53 3 10 -7 8 -9 -5 -9 -10 0 -15 -4 -12
-10 3 -5 28 -10 55 -10 39 0 52 -4 60 -20 8 -15 17 -19 35 -14 19 5 26 0 40
-30 10 -20 21 -33 26 -31 11 7 91 -43 85 -53 -3 -5 12 -9 32 -10 21 -1 44 -10
52 -20 8 -10 32 -26 53 -35 20 -10 37 -22 37 -28 0 -8 41 -31 62 -33 3 -1 18
-13 32 -28 14 -16 30 -29 36 -29 20 -3 25 -4 38 -12 7 -5 10 -13 7 -18 -3 -5
1 -6 9 -3 10 4 16 1 16 -8 0 -18 62 -88 78 -88 6 0 12 -11 12 -25 0 -14 5 -25
10 -25 6 0 10 -9 10 -20 0 -11 7 -20 15 -20 10 0 15 -11 15 -35 0 -18 6 -38
14 -42 14 -9 26 -78 32 -183 2 -36 8 -66 14 -68 5 -2 7 -15 4 -28 -3 -13 -3
-32 1 -41 4 -10 9 -30 10 -45 5 -50 62 -152 122 -218 33 -36 70 -77 83 -92 13
-16 29 -28 35 -28 7 0 20 -9 30 -20 9 -10 33 -24 51 -30 25 -9 40 -23 54 -52
23 -48 19 -59 -18 -48 -15 5 -81 16 -147 25 -66 9 -149 21 -184 27 -36 6 -141
11 -235 12 -153 1 -179 -1 -244 -22 -98 -31 -153 -83 -177 -166 -20 -69 -15
-127 14 -167 12 -16 21 -36 21 -46 0 -23 36 -48 43 -30 3 9 9 9 26 -1 16 -9
27 -10 41 -2 14 8 26 7 41 0 15 -8 34 -8 71 0 28 6 52 9 54 7 2 -2 -4 -13 -12
-26 -14 -20 -22 -22 -60 -16 -40 6 -44 4 -44 -14 0 -12 -4 -21 -9 -21 -5 0 -8
11 -5 25 2 14 1 25 -4 25 -5 0 -19 -11 -32 -25 -13 -14 -20 -25 -15 -25 4 0 1
-8 -9 -19 -10 -11 -26 -16 -39 -14 -16 3 -29 -5 -47 -28 -14 -17 -40 -49 -58
-71 -34 -43 -37 -51 -48 -143 -9 -75 -9 -81 0 -130 5 -27 2 -54 -9 -84 -8 -24
-13 -53 -9 -63 3 -11 0 -20 -10 -24 -30 -11 -16 -30 37 -49 43 -16 48 -20 27
-23 -13 -2 -40 1 -60 7 -154 45 -585 39 -635 -10 -5 -5 -19 -9 -30 -9 -23 0
-30 11 -65 103 -38 99 -129 237 -156 237 -3 0 -18 8 -32 18 -15 10 -43 24 -62
31 -19 8 -53 21 -75 31 -22 9 -58 23 -80 31 -22 7 -60 24 -84 36 -24 13 -57
23 -73 23 -17 0 -27 4 -23 10 4 6 -9 10 -31 10 -28 0 -34 3 -26 13 8 9 -1 11
-44 9 -34 -3 -54 0 -54 7 0 6 19 11 43 12 40 1 41 1 13 9 -50 15 -196 24 -196
12 0 -6 10 -13 23 -15 19 -4 18 -4 -5 -6 -16 0 -28 4 -28 9 0 6 -9 10 -21 10
-11 0 -17 -4 -14 -10 4 -6 -34 -10 -107 -10 -214 -1 -632 -32 -783 -59 -33 -6
-67 -11 -75 -11 -23 0 18 25 65 40 50 16 64 28 46 39 -9 6 -22 5 -33 -2 -15
-10 -21 -9 -28 3 -7 11 -5 16 7 19 18 3 58 49 58 66 0 5 10 14 23 20 12 5 22
13 22 17 0 16 -41 7 -60 -12 -20 -20 -60 -28 -60 -11 0 12 90 50 143 60 23 4
68 20 100 35 32 15 106 42 165 61 216 68 221 69 437 69 201 -1 338 -15 478
-50 34 -9 74 -17 89 -18 15 -2 33 -7 40 -13 7 -6 27 -13 43 -16 17 -3 50 -10
75 -15 25 -4 51 -11 57 -15 20 -13 62 11 86 50 14 21 33 71 43 111 15 61 16
81 6 128 -25 120 -98 170 -332 225 -78 18 -403 20 -510 3 -47 -8 -109 -14
-138 -14 -72 0 -282 -27 -362 -47 -138 -33 -334 -132 -453 -228 -37 -30 -72
-55 -77 -55 -19 0 -11 66 10 85 11 10 20 24 20 32 0 7 7 25 16 38 9 13 13 29
9 35 -4 7 2 14 14 17 15 4 19 9 12 17 -7 8 -5 21 4 40 8 16 15 41 15 56 0 16
5 30 10 32 6 2 12 20 13 41 2 20 10 44 19 53 12 12 14 23 7 46 -7 25 -5 33 14
48 l22 18 -27 11 c-37 14 -35 23 11 45 36 17 39 21 30 44 -12 31 -3 42 15 17
13 -18 14 -17 20 13 4 17 16 34 26 37 10 3 21 12 24 20 3 8 12 12 21 9 8 -3
15 -1 15 5 0 6 -6 11 -12 11 -8 0 -5 7 6 15 11 8 25 15 30 15 6 0 5 -4 -2 -9
-11 -7 -10 -10 3 -15 23 -9 38 3 32 25 -3 10 -1 22 4 25 6 3 7 14 4 25 -4 11
-3 19 2 18 23 -4 35 2 29 16 -6 18 -1 19 24 5 25 -14 30 -3 20 48 -6 35 -5 42
6 38 9 -3 14 2 14 14 0 10 7 25 15 34 8 8 15 19 15 23 0 5 14 19 31 32 28 21
29 24 15 40 -21 24 -20 38 4 46 11 3 20 12 20 19 0 8 7 19 15 26 8 7 12 16 9
21 -3 5 0 9 5 9 6 0 11 16 11 36 0 27 7 41 25 56 16 13 25 29 25 49 0 16 4 29
9 29 19 0 99 60 116 86 13 21 19 24 26 13 6 -10 11 -11 19 -3 7 7 5 16 -10 29
-23 21 -26 41 -6 48 9 4 12 0 9 -13 -8 -29 34 -37 58 -11 24 25 24 31 2 31
-15 0 -16 2 -3 10 21 14 28 12 33 -7 3 -12 5 -10 6 7 1 18 10 29 31 38 35 16
39 32 8 32 -18 0 -20 2 -8 9 8 6 19 7 25 3 5 -4 17 -7 25 -7 10 0 14 -8 12
-24 -3 -16 0 -21 8 -16 6 4 10 15 7 26 -3 10 4 26 15 36 11 10 27 31 35 46 12
25 19 28 51 25 34 -3 37 -1 42 27 3 17 8 25 13 19 9 -15 139 -7 148 8 4 6 12
7 18 4 6 -4 17 -4 23 1 7 4 26 6 41 4 25 -2 27 0 21 23 -7 28 12 36 33 15z
m-132 -8 c3 -5 1 -12 -5 -16 -5 -3 -10 1 -10 9 0 18 6 21 15 7z m-275 -61 c0
-5 -5 -10 -11 -10 -5 0 -7 5 -4 10 3 6 8 10 11 10 2 0 4 -4 4 -10z m-35 -60
c-3 -5 -10 -10 -16 -10 -5 0 -9 5 -9 10 0 6 7 10 16 10 8 0 12 -4 9 -10z
m1760 -150 c3 -5 1 -10 -4 -10 -6 0 -11 5 -11 10 0 6 2 10 4 10 3 0 8 -4 11
-10z m35 -35 c0 -21 -30 -31 -40 -14 -11 17 -3 29 21 29 10 0 19 -7 19 -15z
m610 -1782 c0 -5 25 -8 57 -8 31 0 67 -5 81 -12 13 -7 36 -13 50 -13 14 0 39
-4 56 -10 17 -5 63 -19 101 -31 66 -21 165 -65 165 -73 0 -3 -8 -12 -17 -22
-16 -16 -16 -16 4 -10 16 5 25 2 33 -14 6 -11 21 -20 33 -20 22 -1 22 -1 2
-15 -11 -8 -26 -19 -33 -26 -8 -6 -25 -8 -40 -4 -52 13 -187 33 -194 28 -4 -2
-17 1 -28 7 -12 6 -56 20 -98 31 -42 11 -84 23 -92 26 -8 3 -21 5 -29 4 -7 -1
-11 4 -9 11 4 12 -47 43 -65 39 -4 0 -10 6 -13 14 -4 8 -14 15 -23 15 -10 0
-12 3 -5 8 11 7 34 45 34 56 0 15 -41 4 -50 -14 -12 -23 -30 -27 -30 -6 0 22
40 46 77 46 18 0 33 -3 33 -7z m-310 -7 c0 -3 -4 -8 -10 -11 -5 -3 -10 -1 -10
4 0 6 5 11 10 11 6 0 10 -2 10 -4z m70 -6 c0 -5 -2 -10 -4 -10 -3 0 -8 5 -11
10 -3 6 -1 10 4 10 6 0 11 -4 11 -10z m-3164 -225 c-11 -8 -27 -15 -35 -14 -9
0 -2 7 14 14 39 18 45 18 21 0z m1154 -20 c47 -8 94 -16 105 -19 11 -2 47 -10
80 -16 87 -17 149 -32 160 -40 6 -3 30 -12 55 -19 220 -64 313 -156 379 -378
20 -66 20 -81 11 -180 -14 -151 -21 -192 -31 -199 -5 -3 -9 -14 -9 -25 0 -10
-4 -27 -9 -37 -5 -9 -13 -28 -19 -42 -20 -51 -57 -125 -64 -128 -5 -2 -8 -8
-8 -13 0 -18 -89 -144 -146 -207 -55 -61 -137 -123 -199 -151 -16 -7 -38 -17
-47 -22 -10 -5 -26 -9 -36 -9 -10 0 -22 -4 -28 -8 -5 -5 -36 -14 -69 -21 -33
-7 -71 -17 -85 -22 -109 -37 -507 -38 -640 -1 -326 89 -441 168 -545 376 -58
115 -65 142 -91 341 -15 111 -15 136 1 325 17 203 33 280 70 336 8 13 22 24
30 24 8 0 15 3 15 8 0 4 15 13 33 20 17 8 42 19 54 25 16 7 33 7 57 0 18 -6
51 -7 72 -3 36 6 35 11 -6 23 -29 8 86 37 171 43 123 10 137 -3 52 -46 -38
-19 -82 -48 -98 -65 -37 -36 -150 -259 -140 -275 4 -6 -3 -20 -15 -30 -12 -10
-19 -23 -16 -29 3 -5 -2 -23 -11 -40 -17 -29 -17 -31 2 -45 11 -9 14 -16 8
-16 -7 0 -13 -11 -13 -25 0 -19 5 -25 23 -25 30 0 39 -8 59 -52 10 -21 24 -38
33 -38 8 0 15 -5 15 -11 0 -8 12 -10 35 -6 36 6 59 -8 31 -19 -24 -9 -9 -24
25 -24 16 0 29 -5 30 -12 0 -7 4 -4 9 7 8 20 9 20 9 -1 1 -18 7 -20 53 -20 30
0 53 -5 56 -12 2 -7 15 -9 33 -5 18 3 29 1 29 -6 0 -6 8 -11 18 -11 11 0 34
-7 51 -16 27 -13 38 -14 58 -5 17 8 29 9 36 2 7 -7 22 -5 44 4 32 14 35 13 40
-4 5 -18 7 -18 40 5 20 13 50 24 67 24 17 0 40 7 50 15 11 8 33 15 50 15 28 0
29 1 10 14 -19 14 -19 15 4 46 29 38 72 151 72 187 0 85 -53 191 -122 242 -27
20 -170 71 -200 71 -40 0 -173 -66 -202 -101 -76 -90 -107 -197 -82 -282 17
-59 68 -142 97 -158 11 -5 17 -14 13 -20 -4 -6 -11 -6 -20 2 -8 6 -24 9 -36 6
-12 -4 -36 0 -52 7 -17 7 -50 21 -73 31 -51 21 -163 123 -163 148 0 10 -5 27
-11 39 -17 32 -3 62 60 123 55 53 151 125 167 125 4 0 26 9 48 19 69 33 149
61 158 55 5 -3 16 0 24 7 8 6 49 14 90 17 112 7 245 -25 350 -83 115 -65 226
-165 272 -248 13 -23 35 -61 48 -84 23 -39 23 -42 6 -62 -12 -14 -33 -22 -69
-25 -49 -5 -212 -40 -243 -53 -8 -3 -18 -5 -22 -5 -5 1 -8 -3 -8 -9 0 -7 7 -8
18 -4 9 4 69 9 132 11 76 3 131 10 163 21 39 15 49 16 56 5 6 -10 10 -4 15 18
10 52 7 85 -13 162 -10 40 -26 112 -35 160 -24 131 -80 216 -179 274 -65 38
-136 64 -176 64 -28 0 -61 -26 -61 -47 0 -9 -7 -12 -17 -9 -95 28 -180 47
-206 45 -18 -1 -59 1 -91 6 -53 7 -57 9 -41 21 21 16 14 20 -50 28 -22 2 -65
8 -95 13 l-55 8 80 6 c168 12 429 9 515 -6z m2456 7 c-5 -8 -66 -4 -66 4 0 2
16 4 36 4 19 0 33 -4 30 -8z m220 -9 c-4 -4 8 -13 26 -20 l33 -13 -40 5 c-106
11 -133 28 -54 33 24 1 40 -1 35 -5z m-211 -93 c4 -6 -14 -11 -47 -11 -29 -1
-64 -2 -78 -3 -14 -1 -44 -3 -67 -4 l-42 -2 25 -25 c14 -14 35 -25 47 -24 12
1 31 1 42 0 16 -1 17 -3 5 -10 -8 -6 -26 -7 -40 -4 -15 2 -65 -2 -111 -11 -55
-10 -87 -12 -93 -6 -14 14 -26 12 -26 -2 -1 -7 -22 -23 -49 -35 -57 -27 -61
-28 -61 -8 0 19 -10 19 -38 -1 -25 -17 -31 -47 -7 -38 27 11 16 -7 -48 -77
-54 -59 -137 -195 -137 -225 0 -5 -9 -15 -20 -22 -14 -8 -20 -23 -20 -47 0
-38 15 -47 25 -15 3 11 13 20 21 20 9 0 24 21 35 48 48 115 75 146 63 74 -7
-44 9 -142 31 -185 8 -16 15 -34 15 -39 0 -13 -34 -9 -76 8 -22 9 -52 14 -71
11 -26 -5 -33 -2 -33 10 0 9 -2 14 -4 12 -3 -2 -8 -42 -11 -89 -4 -47 -9 -87
-11 -89 -10 -11 -2 205 10 299 22 158 69 280 129 332 28 25 88 57 145 79 12 5
32 13 45 18 32 13 76 27 122 39 99 26 318 41 330 22z m93 -7 c-10 -2 -28 -2
-40 0 -13 2 -5 4 17 4 22 1 32 -1 23 -4z m-2517 -33 c30 -24 8 -27 -42 -6 -32
14 -30 17 12 25 4 0 17 -8 30 -19z m2249 0 c0 -5 -4 -10 -10 -10 -5 0 -10 5
-10 10 0 6 5 10 10 10 6 0 10 -4 10 -10z m-2099 -47 c19 -21 20 -25 6 -20 -10
4 -22 7 -25 7 -4 0 -13 9 -20 20 -19 31 9 26 39 -7z m3035 -40 c28 -12 34 -18
21 -21 -24 -5 -89 17 -82 29 8 13 17 11 61 -8z m69 -33 c3 -5 -1 -10 -9 -10
-9 0 -16 5 -16 10 0 6 4 10 9 10 6 0 13 -4 16 -10z m-4682 -36 c-4 -12 -13
-14 -37 -9 -17 4 -44 7 -59 6 -17 -1 -26 3 -22 9 3 5 33 10 65 10 50 0 58 -2
53 -16z m4780 -19 c12 -8 29 -15 39 -15 20 0 41 -34 35 -58 -3 -13 -8 -9 -23
16 -13 23 -25 31 -37 28 -12 -3 -32 8 -55 30 -36 34 -36 34 -9 24 16 -6 39
-17 50 -25z m-922 -9 c84 -19 212 -99 256 -159 33 -45 37 -56 39 -119 1 -51
-2 -71 -12 -75 -8 -3 -14 -13 -14 -22 0 -10 -10 -27 -22 -38 -39 -36 -199 -98
-270 -105 -19 -2 -25 -7 -20 -15 6 -10 19 -10 63 1 38 10 58 11 67 4 9 -8 -4
-19 -54 -43 -47 -23 -61 -34 -47 -37 26 -7 123 24 123 39 0 8 12 13 30 13 19
0 30 -5 30 -14 0 -17 -24 -38 -40 -34 -7 2 -15 -3 -17 -9 -3 -7 0 -13 7 -13 6
0 8 -4 5 -10 -3 -5 -16 -10 -28 -10 -13 0 -31 -6 -42 -14 -32 -21 -115 -37
-202 -36 -23 0 -33 -5 -33 -15 0 -8 3 -16 8 -16 8 -2 35 -6 99 -15 29 -4 43
-12 46 -25 3 -11 14 -19 27 -19 19 0 20 2 10 15 -10 12 -10 15 0 15 7 0 18 -7
24 -16 9 -11 32 -17 81 -19 39 -2 90 -10 114 -19 36 -13 46 -14 53 -4 6 10 8
9 8 -2 0 -15 41 -37 113 -61 20 -7 37 -17 37 -21 0 -4 3 -7 8 -7 4 1 12 0 17
-1 6 -2 19 -3 29 -4 25 -1 43 -52 27 -78 -9 -15 -8 -18 6 -18 16 -1 16 -2 -2
-12 -30 -16 -31 -18 -16 -27 8 -5 10 -14 6 -21 -6 -10 -11 -9 -21 4 -7 10 -17
15 -23 12 -6 -4 -4 -14 6 -26 9 -10 20 -17 25 -14 4 3 8 1 8 -5 0 -5 3 -16 6
-25 4 -11 1 -16 -10 -16 -9 0 -16 -2 -16 -4 0 -2 -3 -11 -6 -20 -5 -12 0 -16
20 -16 14 0 26 -4 26 -8 0 -18 -103 -43 -240 -58 -150 -16 -346 -13 -440 7
-114 25 -140 33 -213 61 -92 36 -176 89 -233 147 -67 67 -146 238 -168 364 -4
21 -10 45 -13 54 -5 11 -1 14 13 9 16 -5 19 0 21 24 1 17 -1 30 -6 30 -4 0 -8
14 -8 30 0 24 4 29 16 24 43 -17 54 -17 48 0 -8 20 15 32 41 21 9 -4 29 -7 44
-6 14 1 29 -3 33 -9 4 -7 22 -9 50 -5 30 5 50 3 66 -8 13 -8 38 -18 54 -21 54
-11 155 -14 161 -5 3 5 14 9 25 9 27 0 102 53 133 93 36 48 66 123 66 169 0
59 -59 166 -115 208 -68 51 -66 60 13 60 37 0 92 -6 123 -14z m-3844 -50 c18
-12 33 -27 33 -35 0 -22 -92 -3 -195 40 l-30 12 30 7 c46 11 126 -1 162 -24z
m1274 -8 c30 -33 37 -71 19 -98 -9 -13 -13 -11 -29 9 -28 36 -45 121 -24 121
2 0 17 -15 34 -32z m3393 14 c-1 -7 -2 -25 -2 -42 -3 -47 -17 -35 -18 15 -1
29 3 44 10 42 6 -2 11 -9 10 -15z m-3579 -52 c14 -22 -6 -50 -36 -50 -24 0
-29 4 -29 23 0 13 3 27 7 30 10 11 51 8 58 -3z m3782 -61 c25 -133 14 -282
-36 -489 -43 -178 -97 -298 -171 -379 -46 -50 -47 -31 -2 36 68 101 83 139
130 328 30 121 56 399 47 500 -6 63 -5 77 6 73 7 -2 19 -33 26 -69z m-5063 47
c25 -2 53 -9 61 -16 8 -6 23 -9 34 -5 10 3 22 1 26 -5 3 -5 16 -10 28 -11 43
-1 82 -33 85 -70 2 -19 10 -37 17 -41 8 -5 11 -17 8 -29 -7 -24 12 -225 29
-309 24 -125 82 -262 158 -375 46 -68 170 -195 191 -195 5 0 22 -8 36 -17 75
-50 251 -95 436 -113 151 -15 388 -1 497 30 36 10 81 21 101 24 19 3 73 22
120 42 46 19 99 35 117 36 25 0 32 4 28 15 -4 10 -1 13 14 8 32 -10 78 20 143
93 32 38 36 62 5 32 -12 -11 -24 -17 -27 -14 -3 3 -1 8 4 12 8 6 65 88 217
316 17 25 15 -2 -3 -38 -23 -48 -23 -52 -4 -32 8 8 15 17 15 21 0 3 14 18 31
32 21 18 27 28 18 33 -15 10 -3 30 18 30 12 0 14 7 9 35 -6 29 -4 34 9 29 15
-6 22 11 7 20 -15 9 -36 288 -26 331 10 43 33 58 41 27 3 -13 10 -19 20 -15
10 4 11 9 4 16 -19 19 -12 28 22 28 75 1 113 6 136 18 64 35 481 -18 481 -60
0 -6 -8 -5 -19 1 -31 16 -45 12 -23 -7 27 -24 44 -80 32 -103 -6 -10 -7 -26
-4 -34 4 -9 1 -16 -6 -16 -7 0 -10 -7 -7 -15 8 -19 -12 -133 -28 -165 -24 -47
-2 -211 36 -278 10 -18 21 -47 24 -64 3 -17 10 -40 16 -50 7 -14 7 -34 -1 -68
-8 -35 -9 -54 -1 -69 6 -11 11 -27 11 -37 0 -9 13 -45 29 -78 41 -86 39 -149
-5 -238 -19 -37 -40 -70 -48 -75 -8 -4 -23 -24 -33 -43 -24 -43 -70 -76 -191
-137 -99 -50 -116 -51 -137 -5 -5 12 -18 22 -27 22 -10 0 -18 4 -18 9 0 8 -24
20 -120 59 -26 10 -89 14 -239 15 l-204 2 -21 28 c-17 22 -21 42 -21 95 1 94
8 166 18 173 5 3 5 20 0 38 l-8 32 -32 -33 c-23 -24 -36 -54 -52 -115 -12 -45
-21 -94 -21 -108 0 -89 56 -178 139 -219 52 -26 104 -39 245 -62 91 -14 195
-53 204 -76 2 -4 10 -8 18 -8 8 0 25 -6 37 -14 12 -8 49 -23 82 -34 64 -21
128 -19 224 7 54 15 92 20 208 25 73 3 103 9 147 30 31 15 56 31 56 36 0 6 6
10 13 10 6 1 32 21 57 45 l45 45 0 97 c0 105 -23 218 -71 348 -14 39 -29 86
-34 105 -9 35 -5 53 8 35 9 -13 49 -35 62 -35 5 0 10 7 10 15 0 8 -5 15 -12
15 -6 0 -9 3 -5 6 5 5 63 -22 77 -36 13 -13 137 -70 153 -70 9 0 17 -4 17 -10
0 -5 11 -10 24 -10 14 0 27 -4 30 -9 5 -8 24 -12 141 -31 28 -4 75 -13 105
-19 57 -12 330 -16 372 -6 13 3 39 -2 63 -14 48 -23 72 -15 25 9 -18 9 -28 20
-23 23 12 7 106 -27 98 -35 -4 -3 5 -18 19 -33 28 -30 32 -45 16 -61 -6 -6
-15 -52 -20 -103 -6 -51 -15 -102 -21 -113 -6 -12 -13 -46 -15 -75 -1 -30 -8
-61 -14 -68 -7 -8 -9 -18 -6 -23 6 -10 -27 -132 -48 -177 -8 -16 -22 -48 -31
-70 -9 -22 -20 -48 -26 -58 -5 -10 -7 -22 -4 -27 3 -5 1 -11 -4 -14 -5 -4 -12
-24 -16 -46 -4 -22 -11 -40 -16 -40 -5 0 -9 -6 -9 -14 0 -7 -9 -25 -20 -39
-11 -14 -20 -33 -20 -43 0 -10 -17 -35 -37 -56 -61 -60 -79 -83 -93 -119 -8
-19 -27 -46 -42 -61 -15 -14 -28 -33 -28 -41 0 -8 -16 -32 -35 -53 -19 -22
-35 -44 -35 -50 0 -11 -48 -118 -111 -251 -16 -34 -45 -84 -64 -112 -19 -28
-35 -53 -35 -56 0 -3 -9 -15 -20 -27 -11 -12 -20 -28 -20 -35 0 -7 -4 -13 -10
-13 -5 0 -10 -6 -10 -13 0 -14 -35 -47 -50 -47 -14 0 -43 -47 -36 -59 4 -5
-10 -23 -30 -39 -20 -17 -33 -35 -30 -41 4 -7 -1 -11 -13 -11 -14 0 -19 -5
-15 -15 4 -8 1 -15 -6 -15 -17 0 -34 -20 -49 -58 -8 -19 -25 -38 -39 -43 -19
-7 -23 -15 -20 -34 4 -19 1 -25 -13 -25 -11 0 -19 -7 -19 -14 0 -19 -43 -66
-60 -66 -7 0 -10 -6 -7 -14 4 -10 0 -12 -14 -9 -16 4 -19 0 -19 -26 0 -17 -4
-31 -8 -31 -4 0 -27 -18 -50 -40 -22 -22 -45 -40 -50 -40 -5 0 -14 -11 -21
-24 -7 -13 -30 -29 -51 -36 -22 -7 -41 -19 -44 -27 -3 -7 -18 -13 -33 -12 -16
1 -44 -6 -64 -14 -20 -9 -67 -19 -105 -22 -38 -4 -78 -10 -89 -15 -30 -13
-161 -19 -203 -9 -28 6 -38 4 -48 -9 -9 -13 -15 -14 -26 -5 -8 7 -32 12 -53
11 -70 -3 -279 24 -302 38 -12 8 -36 14 -52 14 -16 0 -33 5 -36 10 -3 6 -19
10 -34 10 -15 0 -31 4 -37 9 -5 5 -26 14 -46 21 -21 6 -38 16 -38 22 0 6 -6 8
-14 5 -7 -3 -18 -1 -23 4 -14 14 -73 47 -105 60 -16 6 -28 15 -28 20 0 5 -24
21 -52 34 -78 37 -127 69 -144 94 -8 11 -20 21 -25 21 -5 0 -24 13 -42 30 -67
62 -102 90 -114 90 -7 0 -13 4 -13 9 0 5 -17 17 -37 28 -67 33 -103 57 -103
69 0 10 -43 36 -62 38 -4 1 -17 9 -28 18 -11 10 -22 18 -24 18 -3 0 -20 14
-38 30 -18 17 -38 30 -44 30 -6 0 -19 9 -29 20 -10 11 -27 20 -38 20 -11 0
-28 6 -36 14 -32 27 -127 71 -147 67 -6 0 -17 6 -24 14 -9 11 -9 15 -1 15 7 0
9 4 6 10 -3 5 -18 7 -33 4 -21 -4 -35 2 -64 29 -21 19 -38 30 -38 25 0 -16
-29 12 -43 41 -7 14 -22 27 -35 29 -12 2 -22 9 -22 15 0 14 -60 57 -78 57 -7
0 -12 6 -12 13 0 7 -18 32 -40 56 -22 23 -47 55 -57 72 -10 16 -23 29 -30 29
-7 0 -10 6 -7 14 3 9 -5 21 -19 31 -14 9 -28 28 -32 43 -3 15 -14 36 -24 47
-16 18 -31 43 -62 107 -5 10 -9 27 -9 39 0 13 -8 23 -20 26 -14 4 -19 11 -15
24 3 10 -1 31 -9 47 -8 16 -18 53 -22 83 -4 30 -13 64 -21 75 -16 25 -11 128
8 150 11 13 6 18 -15 15 -5 -1 -5 6 -1 16 18 44 24 96 21 177 -1 47 -6 89 -9
92 -4 4 -3 12 0 18 17 27 19 98 4 154 -6 22 -8 47 -5 56 4 10 0 22 -9 29 -8 7
-17 36 -20 70 -3 32 -10 64 -15 70 -9 11 -33 85 -37 112 -1 6 -4 17 -7 25 -19
54 -32 94 -53 163 -12 42 -27 83 -33 90 -10 13 -19 65 -28 156 -3 31 -9 60
-13 66 -5 5 -11 42 -15 80 -3 39 -11 104 -18 146 -14 96 3 296 31 349 10 19
16 40 14 47 -6 16 38 44 58 38 9 -3 37 -7 63 -9z m3756 -31 c16 -19 6 -45 -18
-45 -29 0 -48 26 -32 45 16 19 34 19 50 0z m-2684 -49 c-3 -14 -10 -26 -16
-26 -15 0 -22 40 -9 56 17 21 33 2 25 -30z m2854 4 c0 -11 -7 -20 -15 -20 -15
0 -21 21 -8 33 12 13 23 7 23 -13z m-2436 -33 c-7 -32 -44 -97 -56 -97 -8 0 0
37 17 75 8 17 16 38 19 48 10 31 28 8 20 -26z m2075 -111 c20 -21 22 -28 11
-41 -21 -25 -37 -17 -54 25 -18 44 -20 69 -9 97 6 14 9 11 18 -19 5 -20 21
-48 34 -62z m335 32 c-10 -24 -21 -45 -25 -48 -4 -3 -9 -16 -10 -30 -3 -15
-11 -25 -21 -25 -9 0 -20 -3 -24 -7 -4 -4 -18 -5 -30 -2 -15 4 -24 2 -24 -6 0
-22 -45 -6 -48 17 -3 17 3 24 25 28 52 11 116 50 142 86 33 47 39 41 15 -13z
m-2763 -46 c-16 -5 -71 37 -71 54 0 10 13 5 41 -18 22 -18 36 -34 30 -36z
m279 6 c-1 -35 -46 -58 -113 -58 -56 0 -79 15 -37 24 18 3 43 6 55 6 13 0 33
9 46 20 27 22 49 26 49 8z m-245 -8 c3 -5 1 -10 -4 -10 -6 0 -11 5 -11 10 0 6
2 10 4 10 3 0 8 -4 11 -10z m-415 -9 c0 -12 -20 -25 -27 -18 -7 7 6 27 18 27
5 0 9 -4 9 -9z m2844 -47 c4 -9 4 -19 1 -22 -6 -6 -35 18 -35 29 0 16 28 10
34 -7z m-4639 -25 c-6 -19 -4 -21 18 -15 27 6 47 -8 25 -18 -9 -3 -8 -8 5 -16
23 -15 22 -30 -4 -30 -30 0 -140 -84 -182 -138 -62 -82 -70 -112 -70 -262 -1
-104 3 -142 15 -165 8 -16 19 -56 22 -87 4 -32 12 -60 17 -63 5 -4 9 -17 9
-31 0 -13 5 -24 11 -24 9 0 10 30 5 108 -4 64 -2 113 4 122 17 28 36 -18 49
-119 28 -224 59 -347 99 -389 6 -7 12 -18 12 -24 0 -14 124 -154 184 -207 59
-51 156 -168 156 -187 0 -7 -7 -19 -15 -28 -9 -8 -12 -22 -8 -32 5 -13 3 -15
-8 -8 -8 5 -27 9 -43 10 -16 1 -34 8 -40 16 -6 8 -16 13 -23 11 -17 -6 -162
115 -199 167 -166 228 -285 451 -328 615 -52 198 -34 447 45 622 53 119 134
193 212 193 35 0 38 -2 32 -21z m2190 -69 c3 -5 -1 -10 -9 -10 -9 0 -16 5 -16
10 0 6 4 10 9 10 6 0 13 -4 16 -10z m1234 -84 c-9 -8 -10 -7 -5 7 3 10 7 35 8
55 1 35 2 35 5 -7 3 -26 -1 -48 -8 -55z m-23 -77 c-12 -27 -15 -29 -16 -12 0
12 5 25 10 28 6 3 11 16 11 28 1 14 3 16 6 6 2 -8 -3 -31 -11 -50z m-3136
-143 c0 -8 6 -16 14 -19 15 -6 46 -62 46 -84 0 -7 4 -13 8 -13 5 0 15 -15 24
-33 15 -30 15 -37 1 -65 -11 -23 -13 -36 -5 -45 6 -7 9 -22 6 -34 -3 -12 2
-33 11 -47 16 -25 18 -25 31 -9 24 32 15 -5 -17 -68 -16 -33 -31 -76 -33 -95
-2 -18 -8 -40 -15 -47 -6 -8 -8 -17 -3 -21 4 -4 -1 -12 -10 -17 -13 -7 -16
-17 -12 -39 6 -27 4 -29 -38 -35 -54 -8 -112 18 -135 62 -48 88 -47 85 -69
213 -7 40 36 274 61 333 14 35 23 42 53 38 6 -1 12 5 12 13 0 13 17 20 58 25
6 0 12 -5 12 -13z m-382 -23 c0 -10 3 -45 7 -78 6 -50 4 -63 -9 -74 -15 -12
-16 -5 -16 78 0 50 4 91 9 91 6 0 10 -8 9 -17z m622 -309 c0 -13 -4 -24 -10
-24 -5 0 -10 14 -10 31 0 17 4 28 10 24 6 -3 10 -17 10 -31z m35 -152 c7 -36
7 -77 2 -110 -7 -40 -5 -70 7 -120 20 -84 20 -106 0 -126 -24 -25 -53 -19 -91
19 -31 31 -34 40 -30 73 12 84 35 169 55 201 16 26 18 38 10 48 -8 10 -8 25 1
55 16 52 32 39 46 -40z m5050 -8 c19 -16 19 -16 -5 -9 -31 9 -50 25 -29 25 7
0 23 -8 34 -16z m-4957 -102 c13 2 24 -19 49 -92 35 -102 43 -180 19 -180 -17
0 -76 72 -105 127 -26 51 -27 119 -4 153 15 22 18 23 21 7 2 -10 11 -16 20
-15z m-524 -79 c23 -68 70 -123 162 -189 34 -24 65 -51 68 -60 6 -16 -38 -64
-60 -64 -20 0 -168 150 -196 200 -33 57 -53 139 -44 175 l7 28 24 -23 c13 -12
31 -42 39 -67z m446 -283 c46 -23 74 -76 64 -119 -8 -30 -47 -76 -87 -101 -24
-15 -35 -16 -64 -7 -41 13 -63 48 -44 71 9 11 9 15 0 18 -9 3 -9 9 0 27 7 12
13 39 13 60 0 49 6 58 43 64 17 2 31 5 33 6 1 0 21 -8 42 -19z m174 -285 c11
-29 6 -105 -8 -133 -28 -55 -47 -63 -119 -56 -72 7 -107 29 -107 67 0 64 39
127 104 168 29 17 30 17 76 -6 26 -13 50 -31 54 -40z m746 -1601 c0 -9 19 -34
42 -56 40 -38 41 -41 23 -54 -24 -18 -30 -18 -60 2 -23 15 -23 18 -10 37 13
19 13 23 -5 42 -12 13 -18 29 -14 38 7 20 24 13 24 -9z m189 -152 c25 -21 58
-44 74 -51 15 -8 27 -20 27 -28 0 -7 4 -13 9 -13 19 0 102 -73 97 -86 -5 -13
25 -37 41 -32 5 2 22 -10 38 -25 17 -15 40 -30 53 -33 12 -4 22 -10 22 -15 0
-5 6 -6 13 -3 17 6 120 -73 112 -86 -4 -6 5 -10 19 -10 15 0 30 -8 36 -20 6
-11 19 -20 30 -20 25 0 107 -44 143 -76 18 -16 36 -24 48 -21 12 3 26 -3 38
-19 10 -13 26 -24 34 -24 9 0 22 -6 29 -14 8 -7 30 -21 48 -31 19 -9 47 -30
62 -46 21 -23 36 -29 67 -29 35 0 43 -4 56 -30 8 -16 15 -35 15 -42 0 -7 4
-20 10 -28 8 -12 11 -12 28 3 18 16 20 16 37 -3 17 -18 17 -20 1 -20 -16 0
-16 -2 1 -24 10 -13 20 -24 23 -24 26 1 40 -4 40 -17 0 -8 5 -15 10 -15 21 0
9 -20 -12 -21 -21 -1 -21 -2 -3 -6 11 -3 23 -10 28 -17 5 -8 10 -7 17 4 8 12
10 10 10 -10 l1 -25 10 23 c5 13 13 21 17 18 13 -8 7 -51 -6 -52 -7 -1 -20 -2
-30 -3 -10 0 -18 -10 -19 -21 -1 -16 4 -20 27 -20 16 0 32 -5 35 -10 3 -6 1
-10 -4 -10 -6 0 -11 -5 -11 -11 0 -7 10 -9 25 -7 25 5 29 -3 28 -49 -1 -7 3
-13 9 -13 5 0 6 -5 3 -10 -5 -8 -11 -8 -19 -1 -7 6 -49 9 -99 6 -48 -2 -87 0
-87 5 0 5 -27 8 -60 8 -50 -1 -64 2 -81 20 -11 12 -26 22 -34 22 -7 0 -16 6
-18 13 -4 9 -8 9 -15 -2 -14 -19 -54 3 -45 25 5 13 2 15 -16 9 -14 -4 -23 -2
-27 8 -3 9 -16 18 -28 21 -13 3 -31 17 -40 31 -9 14 -22 25 -28 25 -6 0 -35
18 -64 40 -29 22 -60 40 -68 40 -8 0 -18 9 -21 20 -3 11 -15 20 -26 20 -10 0
-19 5 -19 10 0 6 -6 10 -14 10 -8 0 -31 16 -52 35 -20 19 -41 35 -45 35 -5 0
-9 7 -9 15 0 8 -6 15 -13 15 -7 0 -27 14 -45 30 -18 17 -37 30 -42 30 -16 0
-61 51 -54 61 3 6 -1 9 -9 7 -9 -2 -15 0 -14 3 3 10 -34 49 -47 50 -6 0 -31
25 -56 54 -30 35 -51 52 -62 49 -9 -3 -19 0 -23 6 -3 5 1 10 9 10 18 0 19 2
10 24 -3 9 -17 16 -31 16 -15 0 -23 5 -20 13 6 18 -23 63 -50 78 -13 7 -23 17
-23 22 0 5 -7 15 -16 22 -14 9 -14 16 -5 33 11 20 9 23 -18 28 -20 4 -28 11
-24 20 3 8 -2 17 -11 20 -9 3 -16 12 -16 19 0 7 -11 21 -25 31 -14 10 -23 24
-21 31 3 7 1 15 -4 18 -19 12 -10 21 22 23 21 2 37 -4 50 -18 10 -11 23 -20
28 -20 16 0 11 19 -9 39 -17 17 -18 31 -3 31 2 0 25 -17 51 -38z m1026 -662
c3 -5 1 -10 -4 -10 -6 0 -11 5 -11 10 0 6 2 10 4 10 3 0 8 -4 11 -10z"/>
<path d="M5720 7849 c0 -5 5 -7 10 -4 6 3 10 8 10 11 0 2 -4 4 -10 4 -5 0 -10
-5 -10 -11z"/>
<path d="M3968 5803 c7 -3 16 -2 19 1 4 3 -2 6 -13 5 -11 0 -14 -3 -6 -6z"/>
<path d="M4094 5792 c11 -11 18 -11 47 1 l34 15 -47 -1 c-40 -1 -46 -4 -34
-15z"/>
<path d="M3170 5740 c0 -5 5 -10 10 -10 6 0 10 5 10 10 0 6 -4 10 -10 10 -5 0
-10 -4 -10 -10z"/>
<path d="M4280 5025 c-8 -9 -8 -15 -2 -15 12 0 26 19 19 26 -2 2 -10 -2 -17
-11z"/>
<path d="M4901 4994 c0 -11 3 -14 6 -6 3 7 2 16 -1 19 -3 4 -6 -2 -5 -13z"/>
<path d="M4877 4931 c-24 -54 -20 -65 4 -13 11 24 19 46 17 48 -3 2 -12 -14
-21 -35z"/>
<path d="M3978 4903 c7 -3 16 -2 19 1 4 3 -2 6 -13 5 -11 0 -14 -3 -6 -6z"/>
<path d="M4821 4804 c0 -11 3 -14 6 -6 3 7 2 16 -1 19 -3 4 -6 -2 -5 -13z"/>
<path d="M6340 5726 c0 -2 7 -7 16 -10 8 -3 12 -2 9 4 -6 10 -25 14 -25 6z"/>
<path d="M6398 5723 c7 -3 16 -2 19 1 4 3 -2 6 -13 5 -11 0 -14 -3 -6 -6z"/>
<path d="M6216 5675 c4 -8 10 -12 15 -9 14 8 10 24 -6 24 -9 0 -12 -6 -9 -15z"/>
<path d="M6170 5651 c0 -14 5 -19 15 -14 17 6 15 25 -3 31 -7 2 -12 -5 -12
-17z"/>
<path d="M6050 5593 c0 -9 -8 -25 -17 -36 -17 -20 -17 -20 2 -13 11 5 28 11
38 13 20 6 22 24 5 41 -17 17 -28 15 -28 -5z"/>
<path d="M6158 5023 c7 -3 16 -2 19 1 4 3 -2 6 -13 5 -11 0 -14 -3 -6 -6z"/>
<path d="M6545 5011 c-7 -12 31 -25 45 -16 5 3 10 10 10 16 0 12 -47 12 -55 0z"/>
<path d="M6478 4988 c-21 -21 -12 -28 25 -21 31 6 34 14 10 29 -14 8 -22 6
-35 -8z"/>
<path d="M4911 4744 c0 -11 3 -14 6 -6 3 7 2 16 -1 19 -3 4 -6 -2 -5 -13z"/>
<path d="M5026 3419 c-32 -5 -82 -17 -110 -28 -28 -10 -89 -29 -135 -41 -46
-13 -110 -36 -142 -51 -33 -16 -65 -29 -71 -29 -6 0 -34 -13 -62 -28 -67 -38
-140 -56 -166 -42 -28 15 -88 16 -102 2 -7 -7 -12 -36 -13 -64 l0 -52 45 2
c52 3 57 0 89 -49 25 -37 91 -79 126 -79 11 0 31 -9 45 -20 26 -21 70 -27 70
-10 0 19 42 11 47 -9 6 -25 52 -33 81 -15 19 12 26 13 38 3 8 -6 36 -13 62
-14 46 -1 59 -5 112 -28 14 -5 32 -9 41 -8 9 1 22 -5 29 -14 12 -14 15 -14 30
0 12 11 20 13 25 6 8 -14 68 -14 99 0 20 10 29 9 42 -2 18 -15 52 -17 294 -21
l145 -3 -1 -67 c-2 -49 2 -68 12 -72 8 -3 14 -19 14 -35 0 -32 -48 -81 -80
-81 -10 0 -20 -6 -23 -14 -3 -8 -23 -16 -44 -19 -168 -22 -216 -27 -268 -33
-33 -3 -71 -5 -85 -5 -40 1 -110 -10 -110 -17 1 -10 68 -39 110 -47 19 -4 44
-12 55 -18 22 -12 34 -14 140 -21 163 -11 402 66 521 168 98 84 164 201 164
292 0 31 4 54 11 54 5 0 8 4 4 9 -3 6 3 18 14 28 11 10 24 31 30 46 7 17 18
27 30 27 11 0 23 5 26 11 4 5 18 14 31 19 40 15 64 67 64 135 0 80 -20 100
-93 92 -42 -5 -73 1 -201 43 -223 72 -302 83 -445 58 -76 -13 -237 2 -296 27
-42 18 -129 24 -199 14z m321 -72 c30 4 41 1 46 -10 10 -27 -15 -35 -85 -27
-37 4 -78 5 -90 3 -30 -6 -81 14 -73 27 4 6 21 8 38 5 18 -4 43 -2 57 3 14 5
35 6 46 1 12 -4 39 -5 61 -2z m-242 -17 c0 -11 -13 -15 -56 -16 -31 0 -63 -4
-73 -7 -19 -7 -21 6 -3 21 31 25 132 27 132 2z m410 -10 c-3 -5 -13 -10 -21
-10 -8 0 -12 5 -9 10 3 6 13 10 21 10 8 0 12 -4 9 -10z m-575 -10 c0 -5 -12
-10 -26 -10 -14 0 -23 4 -19 10 3 6 15 10 26 10 10 0 19 -4 19 -10z m268 -181
c37 -6 155 -15 262 -20 289 -11 316 -14 345 -33 17 -11 36 -15 53 -11 16 3 35
0 46 -8 17 -13 16 -14 -15 -26 -19 -7 -53 -21 -77 -32 -23 -10 -62 -19 -87
-19 -25 0 -58 -8 -77 -19 -58 -34 -143 -44 -344 -39 -158 4 -200 8 -254 26
-36 12 -80 22 -97 22 -18 0 -50 6 -70 14 -21 8 -59 20 -86 26 -26 7 -50 17
-53 21 -3 5 -29 9 -58 9 -62 0 -116 16 -116 35 0 18 28 26 92 26 29 1 65 5 79
10 61 23 358 35 457 18z m-640 -46 c2 -9 -7 -13 -27 -13 -30 0 -39 9 -24 24
11 10 46 3 51 -11z m412 -153 c0 -5 -9 -10 -20 -10 -11 0 -20 5 -20 10 0 6 9
10 20 10 11 0 20 -4 20 -10z m291 -50 c11 -6 17 -16 13 -21 -4 -6 -13 -4 -24
6 -12 11 -28 14 -56 10 -28 -5 -45 -2 -59 10 -19 15 -16 16 43 11 35 -3 72
-11 83 -16z m279 10 c0 -5 -7 -10 -15 -10 -8 0 -15 5 -15 10 0 6 7 10 15 10 8
0 15 -4 15 -10z m-60 -32 c0 -13 -23 -5 -28 10 -2 7 2 10 12 6 9 -3 16 -11 16
-16z m230 -47 c8 -15 6 -29 -7 -55 -28 -59 -46 -41 -31 32 10 46 21 53 38 23z"/>
<path d="M4998 2493 c7 -3 16 -2 19 1 4 3 -2 6 -13 5 -11 0 -14 -3 -6 -6z"/>
</g>
</svg>
